#!OML:ASF E:/inclinewalkrobotboard/Project1/Captureday1/Session1/subject1.ASF
:FULLY-SPECIFIED
:DEGREES
76
root 0 0 0 -0.5085342422568614 -3.017087481152709 -0.19429769365634086
lowerback 11.216509022901949 0.6354127068371958 0.3994655676823569
upperback -1.9413620716635291 0.9284276255993925 0.4970308520380385
thorax -8.374488279964503 0.43220847470534013 0.10936411654103595
lowerneck -11.414949926495702 -0.6312998258791543 1.3483595326810263
upperneck 18.859784147341085 -0.2526389282183117 -3.8996932631408603
head 7.823717454135699 -0.3154466178954207 -1.5700425129921651
rclavicle -5.482741277777189E-16 -6.197981154387556E-16
rhumerus -0.5246414712091632 0.9097037046655849 -60.212232591140385
rradius 53.3396028747831
rwrist 17.45298218624641
rhand -27.24191221215904 -23.43380971725857
rfingers 7.125019999999925
rthumb -0.8352616842869676 -53.57049400842402
lclavicle -4.901684998124786E-16 -6.929039621183605E-16
lhumerus -1.300782560076188 -6.923560982147681 60.49187755652845
lradius 52.63313976522812
lwrist -11.129373343160053
lhand -37.2680030929021 -31.20954862277599
lfingers 7.12501999999992
lthumb -10.370678200555426 -1.6559415879190702
rfemur -21.38600905107742 -0.34311678323021955 19.542323685876877
rtibia 50.61813085873456
rfoot -22.774400277138902 -13.85586451534811
rtoes -12.232386320241048
lfemur -23.127699254930562 1.5472299858756904 -18.142083052661416
ltibia 50.123912841936125
lfoot -25.95581518294519 -3.6531093869898656
ltoes -16.719189355423225
77
root 0 0 0 -0.5116305586169023 -3.0160951174942583 -0.19734582361357156
lowerback 11.215353749096327 0.6349052433088268 0.40009577489217196
upperback -1.9374333140046116 0.9279867852177088 0.49880871516146597
thorax -8.369495916500213 0.43206159106974207 0.11095097516053332
lowerneck -11.423310988171401 -0.6348109034004945 1.3431977474696897
upperneck 18.86035259856852 -0.2578900409324132 -3.8928808264453583
head 7.825265937301743 -0.3177436434660136 -1.567465756974935
rclavicle -5.485602849056815E-16 -6.204367301490186E-16
rhumerus -0.5163953592968777 0.9154147948922446 -60.20634593678755
rradius 53.34775451273679
rwrist 17.45743783990852
rhand -27.24510529276232 -23.4488440928434
rfingers 7.125019999999925
rthumb -0.8385342559010187 -53.58629881223466
lclavicle -4.900263649702909E-16 -6.937435014662477E-16
lhumerus -1.28028710600333 -6.928629503330522 60.47744746896884
lradius 52.65124173154067
lwrist -11.140405136827832
lhand -37.27555031352787 -31.245282321479614
lfingers 7.12501999999992
lthumb -10.377530573786618 -1.6939793022640792
rfemur -21.38086311871758 -0.3398146818113372 19.54662444897097
rtibia 50.610749280466116
rfoot -22.764701736711935 -13.850809387364283
rtoes -12.22173232107114
lfemur -23.11951452920449 1.5452903706437833 -18.143151839969626
ltibia 50.114398352169275
lfoot -25.944131948341806 -3.652879400231071
ltoes -16.71229008001223
78
root 0 0 0 -0.5097472874003764 -3.0166761580038433 -0.19552216346814866
lowerback 11.216037622484812 0.6351971217021763 0.39971105448091887
upperback -1.9397840081169675 0.9282625399913844 0.4977608565462406
thorax -8.37251267417515 0.43214928573153233 0.11003021501554061
lowerneck -11.418320732565606 -0.6326790447984639 1.3463131653821732
upperneck 18.860040716384038 -0.25476191375657287 -3.8969643634583417
head 7.8243616515579175 -0.3163830931273389 -1.569025070391724
rclavicle -5.482583082414683E-16 -6.199962549153845E-16
rhumerus -0.5148354819221481 0.9161643368697661 -60.20628681744742
rradius 53.34862619027927
rwrist 17.457599716760715
rhand -27.2452400572685 -23.44955816432541
rfingers 7.125019999999925
rthumb -0.8383951074504346 -53.58610107938098
lclavicle -4.898852072184062E-16 -6.930487309587651E-16
lhumerus -1.2822464413906687 -6.928041460428594 60.4788459126867
lradius 52.64751467179973
lwrist -11.139030213475248
lhand -37.27421549865301 -31.242017201436838
lfingers 7.12501999999992
lthumb -10.37659558210878 -1.6885109688648328
rfemur -21.381888258474586 -0.340479903588208 19.54574815963917
rtibia 50.61222933570913
rfoot -22.766669231701172 -13.852138219519532
rtoes -12.224306112779715
lfemur -23.12970512311873 1.5477511839848253 -18.141860859821538
ltibia 50.126853633615
lfoot -25.958782094298698 -3.653363517328329
ltoes -16.721216960735948
79
root 0 0 0 -0.5091460671717218 -3.0168922865467933 -0.19494498262014315
lowerback 11.21627238517293 0.6353100504682309 0.39961165306400426
upperback -1.9405608556719287 0.9283556612280538 0.49740197008602915
thorax -8.37350000587852 0.43217943029925443 0.10969252429139337
lowerneck -11.416653775327518 -0.6320002354240835 1.3473262126725818
upperneck 18.859915617845786 -0.25371583104021744 -3.8983185287570152
head 7.8240456891506165 -0.31592154414199203 -1.5695269598869
rclavicle -5.483183876082334E-16 -6.198962593581948E-16
rhumerus -0.516637901695681 0.9149544745002345 -60.20741095684066
rradius 53.34692526203197
rwrist 17.456707190899117
rhand -27.244600891179875 -23.446632512844666
rfingers 7.125019999999925
rthumb -0.8377815333840619 -53.583264853990954
lclavicle -4.899801551157599E-16 -6.929696346924412E-16
lhumerus -1.2890459808497194 -6.926379462405539 60.48362562600777
lradius 52.6421886748653
lwrist -11.135489933626163
lhand -37.27191759953816 -31.230036921102844
lfingers 7.12501999999992
lthumb -10.374422040373123 -1.676586045061903
rfemur -21.383502950976453 -0.34156023704031124 19.5443884697337
rtibia 50.61471618851469
rfoot -22.769822263501993 -13.853639084072853
rtoes -12.227536839372345
lfemur -23.132133804746218 1.5483222778577637 -18.14163357462228
ltibia 50.12946254958677
lfoot -25.962092850660813 -3.6534051285853257
ltoes -16.72333969026787
